<?xml version="1.0" encoding="iso-8859-1"?>
<!-- Generator: Adobe Illustrator 19.0.0, SVG Export Plug-In . SVG Version: 6.00 Build 0)  -->
<svg version="1.1" id="Capa_1" xmlns="http://www.w3.org/2000/svg" xmlns:xlink="http://www.w3.org/1999/xlink" x="0px" y="0px"
	 viewBox="0 0 512 512" style="enable-background:new 0 0 512 512;" xml:space="preserve">
<path style="fill:#4DA6FF;" d="M490.901,493.4C482.2,505.099,469,512,454.3,512H57.7c-14.7,0-27.9-6.901-36.601-18.6
	c-8.399-12.001-10.8-26.7-6.299-40.501L27.1,416.6c4.501-13.5,15-24.001,28.5-28.5l67.8-35.7h265.199l70.201,36.599
	c11.1,3.6,21.599,14.101,26.1,27.601l12.299,36.299C501.7,466.7,499.3,481.399,490.901,493.4z"/>
<path style="fill:#CF4529;" d="M490.901,493.4C482.2,505.099,469,512,454.3,512H256V352.4h132.599l70.201,36.599
	c11.1,3.6,21.599,14.101,26.1,27.601l12.299,36.299C501.7,466.7,499.3,481.399,490.901,493.4z"/>
<path style="fill:#F9BC35;" d="M415.901,328.1l-46.5,41.4l20.698,62.699c4.2,11.7-7.2,23.101-18.898,18.9L293.5,425.3l-24,48.3
	c-2.7,5.399-8.1,8.4-13.5,8.4s-10.8-3.001-13.5-8.401l-24-48.3l-77.701,25.8c-11.398,4.2-23.099-6.899-18.898-18.9l20.698-62.699
	l-46.5-41.4c-10.199-9-3.9-26.1,9.901-26.1h300C419.801,302,426.099,319.1,415.901,328.1z"/>
<path style="fill:#F39E31;" d="M415.901,328.1l-46.5,41.4l20.698,62.699c4.2,11.7-7.2,23.101-18.898,18.9L293.5,425.3l-24,48.3
	c-2.7,5.399-8.1,8.4-13.5,8.4V302h150C419.801,302,426.099,319.1,415.901,328.1z"/>
<path style="fill:#FFEACC;" d="M361,212v45c0,57.9-47.1,105-105,105s-105-47.1-105-105v-45l15-31h180L361,212z"/>
<path style="fill:#FFDBB2;" d="M361,212v45c0,57.9-47.1,105-105,105V181h90L361,212z"/>
<path style="fill:#F9BC35;" d="M331,121H181l-30,29.399V212h210v-61.601L331,121z"/>
<path style="fill:#E55639;" d="M256,242c-16.5,0-30,13.5-30,30s13.5,30,30,30s30-13.5,30-30S272.5,242,256,242z"/>
<path style="fill:#CF4529;" d="M286,272c0,16.5-13.5,30-30,30v-60C272.5,242,286,255.5,286,272z"/>
<polygon style="fill:#F39E31;" points="361,150.399 361,212 256,212 256,121 331,121 "/>
<path style="fill:#4DA6FF;" d="M346,0h-30c-24.6,0-46.199,11.7-60,30c-13.801-18.3-35.4-30-60-30h-30c-41.4,0-75,34.6-75,76
	c0,8.399,6.599,15,15,15h30c8.401,0,15,6.599,15,15v45h210c0-31.5,0-35.7,0-35.7V106c0-8.401,6.599-15,15-15h30
	c8.401,0,15-6.601,15-15C421,34.6,387.4,0,346,0z"/>
<path style="fill:#CF4529;" d="M421,76c0,8.399-6.599,15-15,15h-30c-8.401,0-15,6.599-15,15v9.3c0,0,0,4.2,0,35.7H256V30
	c13.801-18.3,35.4-30,60-30h30C387.4,0,421,34.6,421,76z"/>
<path style="fill:#F39E31;" d="M436,151c-24.814,0-45-20.186-45-45s20.186-45,45-45s45,20.186,45,45S460.814,151,436,151z"/>
<path style="fill:#F9BC35;" d="M76,151c-24.814,0-45-20.186-45-45s20.186-45,45-45s45,20.186,45,45S100.814,151,76,151z"/>
<g>
</g>
<g>
</g>
<g>
</g>
<g>
</g>
<g>
</g>
<g>
</g>
<g>
</g>
<g>
</g>
<g>
</g>
<g>
</g>
<g>
</g>
<g>
</g>
<g>
</g>
<g>
</g>
<g>
</g>
</svg>
